<?xml version="1.0" encoding="utf-8"?>
<!-- Generator: Adobe Illustrator 19.0.0, SVG Export Plug-In . SVG Version: 6.00 Build 0)  -->
<svg version="1.1" id="Layer_1" xmlns="http://www.w3.org/2000/svg" xmlns:xlink="http://www.w3.org/1999/xlink" x="0px" y="0px"
	 viewBox="0 0 393.113 156.546" style="enable-background:new 0 0 393.113 156.546;" xml:space="preserve">
<style type="text/css">
	.st0{fill:none;}
	.st1{fill:#FFFFFF;}
</style>
<rect class="st0" width="393.113" height="156.546"/>
<g>
	<path class="st1" d="M50.396,2.016c-4.32,0.288-5.977,1.296-6.337,4.248c-0.216,1.944-0.36,5.04-0.36,11.665v5.977
		c0,8.497-1.296,14.617-5.473,19.01c-3.312,3.456-8.137,4.968-12.889,4.968c-4.176,0-8.353-1.008-11.52-3.456
		C9.497,41.116,7.48,35.715,7.48,27.29V9.289c0-6.48-0.576-6.768-6.265-7.273V0h18.65v2.016c-5.688,0.36-6.265,0.792-6.265,7.273
		v16.417c0,11.593,4.608,18.217,13.537,18.217c10.369,0,13.609-8.641,13.609-20.521V17.93c0-6.625-0.216-9.649-0.504-11.881
		c-0.432-2.809-1.944-3.672-6.985-4.033V0h17.138V2.016z"/>
</g>
<g>
	<path class="st1" d="M69.474,46.804v-1.872c4.248-0.432,4.752-1.008,4.752-5.977V26.931c0-4.969-1.728-8.209-6.553-8.209
		c-2.88,0-5.688,1.8-7.849,3.672v16.921c0,4.896,0.432,5.185,4.68,5.617v1.872H48.88v-1.872c4.896-0.504,5.256-0.864,5.256-5.617
		V24.41c0-4.608-0.432-4.824-4.32-5.544v-1.656c3.456-0.648,6.84-1.512,10.009-2.952v5.761c1.44-1.08,3.024-2.16,4.824-3.384
		c2.016-1.296,3.889-2.16,5.977-2.16c5.688,0,9.289,3.96,9.289,10.945v13.897c0,4.896,0.36,5.185,4.536,5.617v1.872H69.474z"/>
</g>
<g>
	<path class="st1" d="M87.76,46.804v-1.872c4.537-0.432,5.041-0.864,5.041-5.761V24.338c0-4.464-0.216-4.752-4.537-5.473v-1.728
		c3.672-0.576,7.057-1.512,10.225-2.808v24.842c0,4.896,0.504,5.329,5.112,5.761v1.872H87.76z M91.577,4.537
		c0-2.16,1.728-3.745,3.672-3.745c2.016,0,3.6,1.585,3.6,3.745c0,1.944-1.584,3.672-3.672,3.672
		C93.305,8.209,91.577,6.481,91.577,4.537z"/>
</g>
<g>
	<path class="st1" d="M137.083,17.138c-3.745,0.504-4.393,1.152-6.337,5.472c-2.376,5.401-6.192,14.257-10.153,24.986h-1.944
		c-3.24-8.641-6.553-16.85-9.937-25.202c-1.656-4.176-2.232-4.68-6.121-5.256v-1.8h14.761v1.8c-3.888,0.504-4.032,1.08-2.88,4.176
		c1.873,5.041,4.752,12.601,6.841,17.786c2.52-5.977,4.824-12.529,6.409-17.209c1.08-3.457,0.648-4.248-3.457-4.752v-1.8h12.817
		V17.138z"/>
</g>
<g>
	<path class="st1" d="M161.058,40.683c-4.536,5.688-9.505,6.985-11.737,6.985c-8.857,0-14.042-7.201-14.042-15.337
		c0-4.969,1.8-9.361,4.752-12.601c2.952-3.312,6.841-5.256,10.585-5.256c5.977,0,10.801,5.328,10.801,10.945
		c0,1.44-0.36,2.016-1.656,2.304c-1.224,0.216-10.225,0.936-18.794,1.224c0.072,9.793,5.689,13.825,10.729,13.825
		c2.88,0,5.617-1.152,8.209-3.601L161.058,40.683z M141.329,25.995c4.032,0,7.993-0.072,12.169-0.216
		c1.296,0,1.728-0.432,1.728-1.44c0.072-3.745-2.376-7.201-6.336-7.201C145.577,17.138,142.409,20.162,141.329,25.995z"/>
</g>
<g>
	<path class="st1" d="M175.673,22.106c2.16-3.6,5.256-7.632,8.713-7.632c2.448,0,4.176,1.872,4.176,3.6
		c0,1.44-0.936,2.88-2.304,3.528c-0.864,0.36-1.512,0.288-1.944-0.144c-1.008-1.08-1.872-1.512-3.024-1.512
		c-1.872,0-4.176,2.16-5.76,6.192v13.177c0,4.752,0.36,5.185,5.904,5.617v1.872h-16.561v-1.872c4.465-0.432,4.969-0.864,4.969-5.617
		V24.41c0-4.752-0.36-5.04-4.464-5.616v-1.584c3.528-0.576,6.696-1.44,10.153-2.952v7.849H175.673z"/>
</g>
<g>
	<path class="st1" d="M208.794,23.834c-1.368-4.248-3.889-7.128-7.416-7.128c-2.736,0-4.681,2.16-4.681,4.968
		c0,3.241,2.88,4.896,6.121,6.265c5.4,2.232,9.073,4.825,9.073,9.793c0,6.553-6.121,9.937-11.881,9.937
		c-3.672,0-6.985-1.368-8.281-2.448c-0.504-1.008-1.152-5.905-1.152-8.497l1.872-0.36c1.296,4.753,4.537,8.929,8.857,8.929
		c2.664,0,5.112-2.016,5.112-5.04c0-3.168-2.088-4.897-5.688-6.552c-4.32-2.016-9.001-4.393-9.001-9.937
		c0-5.041,4.32-9.289,10.945-9.289c2.952,0,4.896,0.648,6.409,1.224c0.576,1.656,1.368,5.904,1.584,7.705L208.794,23.834z"/>
</g>
<g>
	<path class="st1" d="M215.992,46.804v-1.872c4.536-0.432,5.04-0.864,5.04-5.761V24.338c0-4.464-0.216-4.752-4.536-5.473v-1.728
		c3.673-0.576,7.057-1.512,10.225-2.808v24.842c0,4.896,0.505,5.329,5.113,5.761v1.872H215.992z M219.809,4.537
		c0-2.16,1.729-3.745,3.672-3.745c2.017,0,3.601,1.585,3.601,3.745c0,1.944-1.584,3.672-3.672,3.672
		C221.537,8.209,219.809,6.481,219.809,4.537z"/>
</g>
<g>
	<path class="st1" d="M248.825,46.732c-1.225,0.648-2.376,0.936-3.024,0.936c-4.536,0-7.057-2.88-7.057-8.569V18.146h-4.969
		l-0.288-0.72l1.944-2.088h3.312v-5.256l4.681-4.752l1.008,0.144v9.865h8.137c0.648,0.72,0.433,2.304-0.432,2.808h-7.705v18.506
		c0,5.833,2.376,6.913,4.177,6.913c1.8,0,3.456-0.72,4.464-1.224l0.648,1.872L248.825,46.732z"/>
</g>
<g>
	<path class="st1" d="M288.354,17.138c-3.816,0.576-4.464,1.152-6.408,5.256c-1.801,3.816-4.032,9.793-9.001,21.674
		c-4.824,11.521-6.408,15.625-7.417,19.514c-0.359,1.368-1.296,1.728-2.304,1.728c-2.017,0-4.104-1.728-4.104-3.456
		c0-1.152,0.647-1.8,1.872-2.592c2.232-1.44,3.672-3.24,5.328-6.409c1.368-2.52,1.944-4.032,2.232-4.968
		c0.36-1.08,0.36-2.016-0.072-3.24c-2.88-8.209-6.12-16.921-8.28-22.034c-1.513-3.96-2.232-4.896-6.192-5.472v-1.8h14.617v1.8
		c-3.312,0.576-3.673,1.296-2.736,3.96l6.553,18.073c2.016-4.896,5.112-13.393,6.624-17.929c0.864-2.736,0.36-3.528-3.744-4.104
		v-1.8h13.033V17.138z"/>
</g>
<g>
	<path class="st1" d="M41.899,104.836v-2.017c5.833-0.575,6.121-0.936,6.049-8.568l-0.216-29.378h-0.288l-17.569,39.459h-1.44
		L12.305,65.881h-0.144l-1.08,20.522c-0.288,5.904-0.288,9.073-0.216,11.953c0.144,3.456,1.872,3.96,6.624,4.464v2.017H0.712v-2.017
		c4.176-0.504,5.617-1.296,6.121-4.32c0.36-2.52,0.792-5.688,1.368-13.177l1.008-14.978c0.648-9.36,0.288-9.649-6.265-10.297v-2.016
		h11.809L31.17,94.036l16.634-36.003h12.241v2.016c-6.336,0.576-6.84,0.72-6.625,8.137l0.72,26.066
		c0.216,7.633,0.432,7.993,6.697,8.568v2.017H41.899z"/>
</g>
<g>
	<path class="st1" d="M86.034,105.701c-1.08,0-2.592-0.648-3.384-1.368c-0.936-1.008-1.368-2.017-1.728-3.24
		c-2.88,1.944-6.337,4.608-8.497,4.608c-5.113,0-8.641-4.249-8.641-8.785c0-3.528,1.872-5.761,5.833-7.128
		c4.32-1.44,9.577-3.385,11.161-4.681v-1.296c0-5.185-2.448-8.137-6.048-8.137c-1.44,0-2.521,0.576-3.241,1.44
		c-0.936,0.936-1.584,2.52-2.16,4.752c-0.288,1.152-1.08,1.656-2.088,1.656c-1.296,0-3.168-1.44-3.168-3.096
		c0-1.08,0.936-1.872,2.304-2.88c2.016-1.44,6.697-4.248,10.801-5.04c2.161,0,4.321,0.648,5.905,1.944
		c2.52,2.088,3.24,5.04,3.24,8.785v13.393c0,3.24,1.296,4.32,2.52,4.32c0.864,0,1.872-0.359,2.592-0.792l0.72,1.872L86.034,105.701z
		 M80.777,87.555c-1.512,0.792-4.968,2.304-6.48,3.024c-2.809,1.296-4.393,2.664-4.393,5.256c0,3.744,2.88,5.545,5.112,5.545
		c1.872-0.072,4.393-1.296,5.761-2.593V87.555z"/>
</g>
<g>
	<path class="st1" d="M112.674,81.866c-1.368-4.248-3.889-7.128-7.416-7.128c-2.736,0-4.681,2.16-4.681,4.968
		c0,3.241,2.88,4.897,6.121,6.265c5.4,2.231,9.073,4.824,9.073,9.792c0,6.553-6.121,9.938-11.881,9.938
		c-3.672,0-6.985-1.368-8.281-2.448c-0.504-1.008-1.152-5.904-1.152-8.497l1.872-0.359c1.296,4.752,4.537,8.929,8.857,8.929
		c2.664,0,5.112-2.017,5.112-5.041c0-3.168-2.088-4.896-5.688-6.553c-4.32-2.016-9.001-4.392-9.001-9.936
		c0-5.041,4.32-9.289,10.945-9.289c2.952,0,4.896,0.648,6.409,1.224c0.576,1.656,1.368,5.904,1.584,7.705L112.674,81.866z"/>
</g>
<g>
	<path class="st1" d="M138.018,81.866c-1.368-4.248-3.889-7.128-7.417-7.128c-2.736,0-4.681,2.16-4.681,4.968
		c0,3.241,2.88,4.897,6.121,6.265c5.4,2.231,9.073,4.824,9.073,9.792c0,6.553-6.121,9.938-11.881,9.938
		c-3.672,0-6.985-1.368-8.281-2.448c-0.504-1.008-1.152-5.904-1.152-8.497l1.872-0.359c1.296,4.752,4.537,8.929,8.857,8.929
		c2.664,0,5.112-2.017,5.112-5.041c0-3.168-2.088-4.896-5.689-6.553c-4.32-2.016-9-4.392-9-9.936c0-5.041,4.32-9.289,10.945-9.289
		c2.952,0,4.896,0.648,6.409,1.224c0.576,1.656,1.368,5.904,1.584,7.705L138.018,81.866z"/>
</g>
<g>
	<path class="st1" d="M167.178,105.701c-1.08,0-2.592-0.648-3.384-1.368c-0.936-1.008-1.368-2.017-1.728-3.24
		c-2.88,1.944-6.336,4.608-8.497,4.608c-5.113,0-8.641-4.249-8.641-8.785c0-3.528,1.872-5.761,5.833-7.128
		c4.32-1.44,9.577-3.385,11.161-4.681v-1.296c0-5.185-2.448-8.137-6.048-8.137c-1.44,0-2.521,0.576-3.241,1.44
		c-0.936,0.936-1.584,2.52-2.16,4.752c-0.288,1.152-1.08,1.656-2.088,1.656c-1.296,0-3.169-1.44-3.169-3.096
		c0-1.08,0.936-1.872,2.304-2.88c2.016-1.44,6.697-4.248,10.801-5.04c2.161,0,4.321,0.648,5.905,1.944
		c2.52,2.088,3.24,5.04,3.24,8.785v13.393c0,3.24,1.296,4.32,2.52,4.32c0.864,0,1.873-0.359,2.592-0.792l0.72,1.872L167.178,105.701
		z M161.921,87.555c-1.512,0.792-4.968,2.304-6.48,3.024c-2.809,1.296-4.393,2.664-4.393,5.256c0,3.744,2.88,5.545,5.112,5.545
		c1.873-0.072,4.393-1.296,5.761-2.593V87.555z"/>
</g>
<g>
	<path class="st1" d="M200.946,98.356c-3.168,4.177-7.993,7.345-12.241,7.345c-9.073,0-14.401-7.345-14.401-15.05
		c0-5.544,2.376-10.369,7.201-14.113c3.744-2.88,8.064-4.032,10.872-4.032c2.88,0,5.257,0.936,6.409,1.872
		c0.936,0.792,1.152,1.44,1.152,2.232c0,1.512-1.584,3.096-2.376,3.096c-0.36,0-0.72-0.216-1.368-0.792
		c-2.16-2.016-4.68-2.952-7.201-2.952c-4.752,0-8.929,3.96-8.929,11.521c0,10.009,6.841,13.321,10.873,13.321
		c3.096,0,5.473-0.864,8.785-3.961L200.946,98.356z"/>
</g>
<g>
	<path class="st1" d="M221.466,104.836v-1.872c4.176-0.432,4.752-0.864,4.752-5.545V85.466c0-5.904-2.232-8.857-7.057-8.857
		c-2.736,0-5.472,1.368-7.488,3.672v17.137c0,4.608,0.36,5.113,4.608,5.545v1.872h-15.266v-1.872
		c4.321-0.36,4.969-0.792,4.969-5.545V63.073c0-4.536-0.144-4.896-4.896-5.329v-1.656c3.456-0.504,7.777-1.656,10.585-2.521v24.194
		c2.52-2.592,6.408-5.256,10.297-5.256c5.832,0,9.936,3.672,9.936,12.313v12.601c0,4.753,0.504,5.185,4.753,5.545v1.872H221.466z"/>
</g>
<g>
	<path class="st1" d="M272.227,103.108c-3.311,0.505-6.984,1.513-10.585,2.593l-0.432-0.433v-5.112
		c-1.656,1.225-3.312,2.521-5.328,3.744c-2.089,1.225-3.601,1.801-5.545,1.801c-4.824,0-8.929-2.952-8.929-10.729V80.858
		c0-3.96-0.288-4.249-4.393-5.041v-1.656c3.385-0.216,6.841-0.648,10.297-1.296c-0.216,2.232-0.216,5.616-0.216,10.513v9.649
		c0,6.408,3.097,8.137,6.337,8.137c2.592,0,5.328-1.08,7.776-3.457V80.93c0-4.104-0.432-4.392-5.616-5.112v-1.656
		c3.744-0.216,7.488-0.504,11.305-1.296v24.05c0,3.601,0.576,4.104,3.312,4.249l2.016,0.144V103.108z"/>
	<path class="st1" d="M293.681,81.866c-1.368-4.248-3.889-7.128-7.417-7.128c-2.736,0-4.68,2.16-4.68,4.968
		c0,3.241,2.88,4.897,6.12,6.265c5.4,2.231,9.072,4.824,9.072,9.792c0,6.553-6.12,9.938-11.881,9.938
		c-3.672,0-6.984-1.368-8.28-2.448c-0.504-1.008-1.152-5.904-1.152-8.497l1.872-0.359c1.296,4.752,4.536,8.929,8.857,8.929
		c2.664,0,5.112-2.017,5.112-5.041c0-3.168-2.089-4.896-5.689-6.553c-4.32-2.016-9.001-4.392-9.001-9.936
		c0-5.041,4.32-9.289,10.944-9.289c2.953,0,4.896,0.648,6.409,1.224c0.576,1.656,1.368,5.904,1.584,7.705L293.681,81.866z"/>
</g>
<g>
	<path class="st1" d="M326.587,98.716c-4.536,5.688-9.505,6.984-11.737,6.984c-8.857,0-14.041-7.201-14.041-15.338
		c0-4.968,1.801-9.36,4.753-12.601c2.952-3.312,6.84-5.256,10.585-5.256c5.977,0,10.801,5.328,10.801,10.945
		c0,1.44-0.36,2.016-1.656,2.304c-1.225,0.217-10.225,0.937-18.794,1.225c0.072,9.793,5.688,13.825,10.729,13.825
		c2.88,0,5.616-1.152,8.208-3.601L326.587,98.716z M306.857,84.027c4.032,0,7.992-0.072,12.169-0.216
		c1.296,0,1.728-0.432,1.728-1.44c0.071-3.745-2.377-7.201-6.337-7.201C311.105,75.17,307.938,78.194,306.857,84.027z"/>
</g>
<g>
	<path class="st1" d="M343.865,104.764c-1.225,0.648-2.376,0.937-3.024,0.937c-4.536,0-7.057-2.881-7.057-8.569V76.178h-4.969
		l-0.288-0.72l1.944-2.088h3.312v-5.256l4.681-4.752l1.008,0.144v9.865h8.137c0.648,0.72,0.432,2.304-0.432,2.808h-7.705v18.505
		c0,5.833,2.376,6.913,4.177,6.913c1.8,0,3.456-0.72,4.464-1.225l0.648,1.873L343.865,104.764z"/>
</g>
<g>
	<path class="st1" d="M364.529,104.764c-1.225,0.648-2.376,0.937-3.024,0.937c-4.536,0-7.057-2.881-7.057-8.569V76.178h-4.969
		l-0.288-0.72l1.944-2.088h3.312v-5.256l4.681-4.752l1.008,0.144v9.865h8.137c0.648,0.72,0.432,2.304-0.432,2.808h-7.705v18.505
		c0,5.833,2.376,6.913,4.177,6.913c1.8,0,3.456-0.72,4.464-1.225l0.648,1.873L364.529,104.764z"/>
</g>
<g>
	<path class="st1" d="M390.018,81.866c-1.368-4.248-3.889-7.128-7.417-7.128c-2.736,0-4.68,2.16-4.68,4.968
		c0,3.241,2.88,4.897,6.12,6.265c5.4,2.231,9.072,4.824,9.072,9.792c0,6.553-6.12,9.938-11.881,9.938
		c-3.672,0-6.984-1.368-8.28-2.448c-0.504-1.008-1.152-5.904-1.152-8.497l1.872-0.359c1.296,4.752,4.536,8.929,8.857,8.929
		c2.664,0,5.112-2.017,5.112-5.041c0-3.168-2.089-4.896-5.688-6.553c-4.32-2.016-9.001-4.392-9.001-9.936
		c0-5.041,4.32-9.289,10.944-9.289c2.953,0,4.897,0.648,6.409,1.224c0.576,1.656,1.368,5.904,1.584,7.705L390.018,81.866z"/>
</g>
<g>
	<path class="st1" d="M297.532,32.381c0-6.241,3.312-10.993,7.297-13.105c1.728-0.912,3.696-1.536,5.185-1.536
		c3.984,0,6.385,2.736,6.385,7.488c0,4.128-1.776,8.833-5.137,11.617c-2.064,1.728-4.704,3.024-7.393,3.024
		C299.309,39.87,297.532,36.269,297.532,32.381z M307.133,37.661c2.593-1.104,5.232-6.192,5.232-12.337
		c0-3.888-1.68-5.76-3.888-5.76c-0.721,0-1.296,0.192-1.824,0.432c-1.872,0.816-5.089,4.752-5.089,12.145
		c0,3.553,1.488,5.809,4.032,5.809C306.173,37.949,306.653,37.854,307.133,37.661z"/>
	<path class="st1" d="M322.395,18.508c0.721-3.648,1.872-7.153,4.032-9.553c2.209-2.448,4.945-3.84,6.865-3.84
		c1.68,0,2.928,1.2,2.88,2.064c0,0.72-0.672,1.584-1.2,1.968c-0.384,0.288-0.864,0.336-1.2-0.048
		c-1.008-1.056-2.016-1.68-3.023-1.68c-1.776,0-3.217,2.208-4.657,11.089h5.425l-1.008,1.488l-4.801,0.48
		c-0.864,5.28-1.392,8.208-2.448,13.537c-1.68,8.256-3.456,11.857-6.097,14.593c-2.112,2.256-4.128,3.024-5.424,3.024
		c-1.393,0-3.024-0.96-2.977-2.064c0-0.624,0.576-1.44,1.296-2.016c0.384-0.336,0.624-0.288,0.912,0c0.769,0.72,2.16,1.2,3.024,1.2
		c0.816,0,1.584-0.384,2.065-0.96c0.624-0.72,1.776-2.736,3.36-12.049c1.151-6.625,1.775-10.657,2.592-15.361h-3.984l-0.143-0.528
		l1.439-1.344H322.395z"/>
</g>
<g>
	<path class="st1" d="M23.663,155.85v-1.624c3.654-0.464,4.176-0.928,3.422-3.189c-0.754-2.263-1.913-5.395-3.189-8.933H11.541
		c-0.928,2.61-1.798,5.046-2.552,7.482c-1.276,3.653-0.754,4.233,3.596,4.64v1.624H0v-1.624c3.654-0.521,4.466-0.87,6.496-5.974
		l12.006-30.449l1.798-0.522c3.596,9.976,7.482,20.996,11.194,31.088c1.856,4.987,2.61,5.51,6.38,5.857v1.624H23.663z
		 M17.979,124.821h-0.116c-1.856,4.988-3.712,10.034-5.452,14.79h10.672L17.979,124.821z"/>
</g>
<g>
	<path class="st1" d="M71.571,155.85v-1.508c3.422-0.349,4.06-0.58,4.06-4.698v-9.686c0-4.118-1.45-6.727-5.104-6.727
		c-2.088,0-4.292,1.159-6.496,3.016c0.116,0.696,0.174,1.334,0.174,2.436v11.311c0,3.653,0.522,4.001,3.712,4.35v1.508H55.505
		v-1.508c3.596-0.349,4.118-0.638,4.118-4.466v-9.976c0-4.292-1.508-6.67-5.046-6.67c-2.32,0-4.582,1.565-6.322,3.016v13.63
		c0,3.769,0.464,4.117,3.306,4.466v1.508H39.324v-1.508c3.828-0.349,4.35-0.696,4.35-4.466v-12.006c0-3.712-0.174-4.002-3.538-4.524
		v-1.334c2.552-0.464,5.51-1.218,8.062-2.378v4.698c1.218-0.812,2.494-1.855,4.234-2.958c1.508-0.928,2.9-1.566,4.756-1.566
		c2.784,0,5.278,1.739,6.438,4.756c1.682-1.276,3.364-2.378,4.814-3.248c1.218-0.812,2.726-1.508,4.35-1.508
		c4.524,0,7.366,3.189,7.366,8.873v11.194c0,3.886,0.464,4.117,3.77,4.466v1.508H71.571z"/>
</g>
<g>
	<path class="st1" d="M102.195,155.85v-1.508c3.364-0.349,3.828-0.696,3.828-4.466v-9.628c0-4.756-1.798-7.134-5.684-7.134
		c-2.204,0-4.408,1.102-6.032,2.958v13.804c0,3.712,0.29,4.117,3.712,4.466v1.508H85.724v-1.508c3.48-0.29,4.002-0.638,4.002-4.466
		V122.21c0-3.653-0.116-3.943-3.944-4.291v-1.334c2.784-0.406,6.264-1.334,8.526-2.03v19.487c2.03-2.088,5.162-4.233,8.293-4.233
		c4.698,0,8.004,2.958,8.004,9.917v10.15c0,3.828,0.406,4.176,3.828,4.466v1.508H102.195z"/>
</g>
<g>
	<path class="st1" d="M137.111,150.92c-3.654,4.582-7.656,5.626-9.454,5.626c-7.134,0-11.31-5.8-11.31-12.354
		c0-4.001,1.45-7.539,3.828-10.149c2.378-2.668,5.51-4.233,8.526-4.233c4.814,0,8.7,4.292,8.7,8.816c0,1.16-0.29,1.624-1.334,1.855
		c-0.986,0.175-8.236,0.755-15.138,0.986c0.058,7.888,4.581,11.136,8.642,11.136c2.32,0,4.524-0.928,6.612-2.899L137.111,150.92z
		 M121.22,139.088c3.248,0,6.438-0.058,9.802-0.174c1.044,0,1.392-0.348,1.392-1.16c0.058-3.016-1.914-5.8-5.103-5.8
		C124.642,131.954,122.089,134.39,121.22,139.088z"/>
</g>
<g>
	<path class="st1" d="M148.886,135.956c1.74-2.9,4.234-6.148,7.018-6.148c1.972,0,3.364,1.508,3.364,2.899
		c0,1.16-0.754,2.32-1.856,2.842c-0.696,0.29-1.218,0.232-1.566-0.115c-0.812-0.87-1.508-1.219-2.436-1.219
		c-1.508,0-3.364,1.74-4.64,4.988v10.613c0,3.828,0.29,4.176,4.756,4.524v1.508h-13.339v-1.508c3.596-0.349,4.002-0.696,4.002-4.524
		v-12.005c0-3.828-0.29-4.061-3.596-4.524v-1.276c2.842-0.464,5.394-1.159,8.178-2.378v6.322H148.886z"/>
</g>
<g>
	<path class="st1" d="M175.275,137.348c-1.102-3.422-3.132-5.741-5.974-5.741c-2.204,0-3.77,1.739-3.77,4.002
		c0,2.609,2.32,3.943,4.93,5.046c4.35,1.798,7.308,3.886,7.308,7.888c0,5.277-4.93,8.004-9.57,8.004
		c-2.958,0-5.626-1.102-6.669-1.973c-0.406-0.812-0.928-4.756-0.928-6.844l1.508-0.29c1.044,3.828,3.654,7.192,7.134,7.192
		c2.146,0,4.118-1.624,4.118-4.061c0-2.552-1.682-3.943-4.582-5.277c-3.48-1.624-7.25-3.538-7.25-8.004
		c0-4.06,3.48-7.482,8.815-7.482c2.378,0,3.944,0.521,5.162,0.985c0.464,1.334,1.102,4.756,1.276,6.206L175.275,137.348z"/>
</g>
<g>
	<path class="st1" d="M191.399,155.792c-0.986,0.521-1.914,0.754-2.436,0.754c-3.654,0-5.684-2.32-5.684-6.902v-16.877h-4.002
		l-0.232-0.58l1.566-1.683h2.668v-4.233l3.77-3.828l0.812,0.116v7.945h6.554c0.522,0.58,0.348,1.856-0.348,2.263h-6.206v14.905
		c0,4.698,1.914,5.567,3.364,5.567c1.45,0,2.784-0.579,3.596-0.985l0.522,1.508L191.399,155.792z"/>
</g>
</svg>
